#N canvas 628 230 1210 582 12;
#N canvas 0 50 450 250 (subpatch) 0;
#X array \$0-steps 16 float 2;
#X coords 0 6 16 0 200 140 1;
#X restore 436 15 graph;
#X text 434 185 0=k \, 1=s \, 2=h \, 3=ks \, 4=kh \, 5=sh \, 6=ksh
;
#X obj 436 319 array set \$0-steps;
#X msg 436 257 0 2 3 4 5 6 0 1 2 3 4 5 6 0 1 2;
#N canvas 194 260 533 378 counter 1;
#X obj 191 61 inlet;
#X obj 273 61 inlet;
#X obj 273 104 nbx 4 18 -1e+37 1e+37 0 0 empty empty BPM 57 10 0 15
#e4e4e4 #5a5a5a #5a5a5a 0 256;
#X obj 198 104 tgl 25 0 empty empty empty 17 7 0 10 #e4e4e4 #5a5a5a
#5a5a5a 0 1;
#X obj 198 160 t f b;
#X obj 198 217 metro 0.25 120 permin;
#X msg 252 257 0;
#X text 273 256 Reset;
#X obj 252 305 + 1;
#X obj 198 305 f;
#X obj 198 349 % 16;
#X obj 191 403 outlet;
#X msg 276 158 tempo \$1 permin;
#X connect 0 0 3 0;
#X connect 1 0 2 0;
#X connect 2 0 12 0;
#X connect 3 0 4 0;
#X connect 4 0 5 0;
#X connect 4 1 6 0;
#X connect 5 0 9 0;
#X connect 6 0 9 1;
#X connect 8 0 9 1;
#X connect 9 0 8 0;
#X connect 9 0 10 0;
#X connect 10 0 11 0;
#X connect 12 0 5 0;
#X coords 0 0 1 1 182 55 0;
#X restore 82 66 pd counter;
#X obj 82 15 tgl 25 0 empty empty empty 17 7 0 10 #e4e4e4 #5a5a5a #5a5a5a
0 1;
#X obj 135 21 nbx 4 18 -1e+37 1e+37 0 0 empty empty empty 0 -8 0 10
#e4e4e4 #5a5a5a #5a5a5a 0 256;
#X obj 82 130 hradio 20 1 0 16 empty empty empty 0 -8 0 10 #e4e4e4
#5a5a5a #5a5a5a 0;
#X obj 83 196 array get \$0-steps;
#X obj 83 240 nbx 4 18 -1e+37 1e+37 0 0 empty empty empty 0 -8 0 10
#e4e4e4 #5a5a5a #5a5a5a 0 256;
#X msg 131 163 1;
#X obj 82 285 + 0.5;
#X obj 82 325 int;
#X obj 82 361 nbx 4 18 -1e+37 1e+37 0 0 empty empty empty 0 -8 0 10
#e4e4e4 #5a5a5a #5a5a5a 0 256;
#X obj 82 399 select 0 1 2 3 4 5 6;
#N canvas 38 38 450 300 kick 1;
#X obj 158 48 inlet;
#X obj 253 48 inlet;
#X obj 158 93 bng 25 250 50 0 empty empty empty 17 7 0 10 #e4e4e4 #5a5a5a
#5a5a5a;
#X obj 255 133 f;
#X obj 158 234 vline~;
#X obj 158 273 osc~;
#X obj 255 273 vline~;
#X obj 158 332 *~;
#X obj 158 368 outlet~;
#X msg 158 177 150 \, 50 70 0;
#X msg 255 234 \$1 1 0 \, 0 100 1;
#X connect 0 0 2 0;
#X connect 1 0 3 1;
#X connect 2 0 3 0;
#X connect 2 0 9 0;
#X connect 3 0 10 0;
#X connect 4 0 5 0;
#X connect 5 0 7 0;
#X connect 6 0 7 1;
#X connect 7 0 8 0;
#X connect 9 0 4 0;
#X connect 10 0 6 0;
#X restore 67 456 pd kick;
#N canvas 0 50 450 300 snare 0;
#X obj 195 78 inlet;
#X obj 275 78 inlet;
#X obj 86 78 noise~;
#X obj 75 134 lop~ 3000;
#X obj 76 182 hip~ 1000;
#X obj 142 241 osc~ 180;
#X obj 150 288 *~ 0.5;
#X obj 234 134 f;
#X obj 254 241 vline~;
#X obj 263 288 *~;
#X obj 150 356 *~;
#X obj 154 401 outlet~;
#X msg 234 182 \$1 1 0 \, 0 150 1;
#X connect 0 0 7 0;
#X connect 1 0 7 1;
#X connect 2 0 3 0;
#X connect 3 0 4 0;
#X connect 4 0 10 0;
#X connect 5 0 6 0;
#X connect 6 0 10 0;
#X connect 7 0 12 0;
#X connect 8 0 9 0;
#X connect 8 0 9 1;
#X connect 9 0 10 1;
#X connect 10 0 11 0;
#X connect 12 0 8 0;
#X restore 142 456 pd snare;
#N canvas 0 50 450 300 hats 0;
#X obj 328 90 inlet;
#X obj 389 90 inlet;
#X obj 121 127 noise~;
#X obj 121 175 hip~ 20000;
#X obj 121 214 hip~ 10000;
#X obj 328 127 bng 25 250 50 0 empty empty empty 17 7 0 10 #e4e4e4
#5a5a5a #5a5a5a;
#X obj 328 175 f;
#X obj 335 214 t f b;
#X obj 380 261 random 10;
#X obj 389 301 / 20;
#X obj 389 337 + 0.7;
#X obj 336 375 *;
#X obj 228 214 vline~;
#X obj 181 315 *~;
#X obj 181 375 outlet~;
#X msg 228 175 \$1 \, 0 40 1;
#X connect 0 0 5 0;
#X connect 1 0 6 1;
#X connect 2 0 3 0;
#X connect 3 0 4 0;
#X connect 4 0 13 0;
#X connect 5 0 6 0;
#X connect 6 0 7 0;
#X connect 7 0 11 0;
#X connect 7 1 8 0;
#X connect 8 0 9 0;
#X connect 9 0 10 0;
#X connect 10 0 11 1;
#X connect 11 0 15 0;
#X connect 12 0 13 1;
#X connect 13 0 14 0;
#X connect 15 0 12 0;
#X restore 239 457 pd hats;
#X obj 151 361 nbx 4 18 -1e+37 1e+37 0 0 empty empty empty 0 -8 0 10
#e4e4e4 #5a5a5a #5a5a5a 0 256;
#X obj 213 361 nbx 4 18 -1e+37 1e+37 0 0 empty empty empty 0 -8 0 10
#e4e4e4 #5a5a5a #5a5a5a 0 256;
#X obj 274 361 nbx 4 18 -1e+37 1e+37 0 0 empty empty empty 0 -8 0 10
#e4e4e4 #5a5a5a #5a5a5a 0 256;
#X obj 123 531 dac~;
#X obj 126 498 +~;
#X connect 3 0 2 0;
#X connect 4 0 7 0;
#X connect 5 0 4 0;
#X connect 6 0 4 1;
#X connect 7 0 8 0;
#X connect 8 0 9 0;
#X connect 9 0 11 0;
#X connect 10 0 8 1;
#X connect 11 0 12 0;
#X connect 12 0 13 0;
#X connect 13 0 14 0;
#X connect 14 0 15 0;
#X connect 14 1 16 0;
#X connect 14 2 17 0;
#X connect 14 3 15 0;
#X connect 14 3 16 0;
#X connect 14 4 15 0;
#X connect 14 4 17 0;
#X connect 14 5 16 0;
#X connect 14 5 17 0;
#X connect 14 6 15 0;
#X connect 14 6 16 0;
#X connect 14 6 17 0;
#X connect 15 0 22 0;
#X connect 16 0 22 0;
#X connect 17 0 22 0;
#X connect 18 0 15 1;
#X connect 19 0 16 1;
#X connect 20 0 17 1;
#X connect 22 0 21 0;
#X connect 22 0 21 1;
